<?xml version="1.0" encoding="UTF-8" standalone="no"?>
<svg
   id="Layer_1"
   data-name="Layer 1"
   viewBox="0 0 700.9 548.89"
   version="1.1"
   sodipodi:docname="WP20_symbol_background(1) - Kopya.svg"
   inkscape:version="1.1.1 (3bf5ae0d25, 2021-09-20)"
   xmlns:inkscape="http://www.inkscape.org/namespaces/inkscape"
   xmlns:sodipodi="http://sodipodi.sourceforge.net/DTD/sodipodi-0.dtd"
   xmlns="http://www.w3.org/2000/svg"
   xmlns:svg="http://www.w3.org/2000/svg">
  <sodipodi:namedview
     id="namedview9"
     pagecolor="#ffffff"
     bordercolor="#999999"
     borderopacity="1"
     inkscape:pageshadow="0"
     inkscape:pageopacity="0"
     inkscape:pagecheckerboard="0"
     showgrid="false"
     inkscape:zoom="0.63446243"
     inkscape:cx="349.11444"
     inkscape:cy="336.50534"
     inkscape:window-width="1366"
     inkscape:window-height="705"
     inkscape:window-x="-8"
     inkscape:window-y="-8"
     inkscape:window-maximized="1"
     inkscape:current-layer="Layer_1" />
  <defs
     id="defs4">
    <style
       id="style2">.cls-1{fill:#ccc;}</style>
  </defs>
  <path
     class="cls-1"
     d="M93.59.37s-94,0-94,93.77V455.49s0,93.77,94,93.77H606.41s94,0,94-93.77V94.14s0-93.77-94-93.77Z"
     id="path6"
     style="fill:#000000;fill-opacity:1" />
  <g
     aria-label="m"
     transform="matrix(0.993472,0,0,1.0065709,-2,4)"
     id="text431"
     style="font-size:378.493px;line-height:1.25;fill:#ffffff;stroke-width:1.89247">
    <path
       d="M 527.27721,360.48611 H 452.3356 v -31.03642 h 9.46232 v -66.61477 q 0,-24.22356 -8.70534,-34.06437 -8.32684,-10.21931 -23.84506,-10.21931 -20.06013,0 -29.52245,13.62574 -9.08383,13.62575 -9.46233,31.03643 v 66.23628 h 25.35904 v 31.03642 h -74.94162 v -31.03642 h 9.08383 v -66.61477 q 0,-24.22356 -8.70534,-34.06437 -8.32684,-10.21931 -23.46656,-10.21931 -19.68164,0 -29.14397,13.62574 -9.46232,13.24726 -9.84081,30.65794 v 66.61477 h 31.79341 v 31.03642 h -97.6512 v -31.03642 h 25.35903 V 221.95767 h -24.98054 v -31.41492 h 65.4793 v 28.00849 q 7.94835,-14.00425 21.1956,-22.70959 13.24726,-8.70533 32.17191,-8.70533 18.92465,0 34.06437,9.46232 15.13972,9.08383 21.19561,28.76547 7.56986,-17.41068 21.95259,-27.62999 14.38274,-10.5978 35.19985,-10.5978 23.08808,0 40.49876,14.76122 17.41067,14.76123 17.41067,46.17615 v 81.376 h 24.98054 z"
       style="font-weight:600;font-family:'Zilla Slab';-inkscape-font-specification:'Zilla Slab Semi-Bold'"
       id="path6812" />
  </g>
  <path
     class="cls-1"
     d="m 648.66051,148.86226 c -2.78,-2.42 -5.27,-2.21 -9.44,-1.63 -4.17,0.58 -9.23,1.28 -14.19,-3 -4.96,-4.28 -5,-9.49 -5,-13.64 0,-4.15 -0.13,-6.71 -2.91,-9.13 -2.78,-2.42 -5.26,-2.2 -9.43,-1.62 -4.17,0.58 -9.23,1.28 -14.2,-3 -4.97,-4.28 -5,-9.5 -5,-13.65 0,-4.150005 -0.13,-6.700005 -2.91,-9.120005 -2.78,-2.42 -5.19,-2.2 -9.37,-1.66 -4.18,0.54 -9.23,1.28 -14.2,-3 -4.97,-4.28 -5,-9.49 -5,-13.64 0,-4.15 -0.13,-6.71 -2.9,-9.12 -2.77,-2.41 -5.26,-2.21 -9.43,-1.63 -4.17,0.58 -9.23,1.28 -14.19,-3 -4.96,-4.28 -5,-9.49 -5,-13.64 0,-4.15 -0.13,-6.71 -2.9,-9.12 l 3.94,-4.52 c 5,4.32 5,9.49 5,13.64 0,4.15 0.13,6.71 2.9,9.12 2.77,2.41 5.26,2.21 9.43,1.63 4.17,-0.58 9.23,-1.28 14.2,3 4.97,4.28 5,9.5 5,13.65 0,4.15 0.13,6.7 2.9,9.12 2.77,2.42 5.26,2.2 9.43,1.62 4.17,-0.58 9.23,-1.28 14.2,3 4.97,4.28 5,9.49 5,13.650005 0,4.16 0.13,6.7 2.9,9.12 2.77,2.42 5.26,2.2 9.43,1.62 4.17,-0.58 9.23,-1.28 14.2,3 4.97,4.28 5,9.5 5,13.65 0,4.15 0.13,6.7 2.9,9.12 2.77,2.42 5.26,2.21 9.43,1.63 4.17,-0.58 9.23,-1.28 14.2,3 z"
     id="path6-1"
     style="fill:#ffffff;fill-opacity:1" />
  <path
     class="cls-1"
     d="m 95.145531,331.16861 -5.76,-1.67 c 1,-3.53 -0.21,-5.7 -2.49,-9.24 -2.28,-3.54 -5,-7.84 -3.2,-14.16 1.8,-6.32 6.53,-8.5 10.29,-10.24 3.76,-1.74 6,-2.94 7.059999,-6.47 1.06,-3.53 -0.21,-5.7 -2.489999,-9.24 -2.28,-3.54 -5,-7.84 -3.2,-14.16 1.8,-6.32 6.529999,-8.49 10.299999,-10.24 3.76999,-1.75 5.99999,-2.93 6.99999,-6.46 1,-3.53 -0.21,-5.7 -2.49,-9.24 -2.28,-3.54 -4.99999,-7.84 -3.2,-14.16 1.8,-6.32 6.53,-8.5 10.3,-10.24 3.77,-1.74 6,-2.94 7,-6.47 1,-3.53 -0.21,-5.7 -2.49,-9.24 -2.28,-3.54 -5,-7.83 -3.2,-14.16 1.8,-6.33 6.63,-8.5 10.39,-10.28 3.76,-1.78 6,-2.94 7.06,-6.47 l 5.76,1.68 c -1.84,6.32 -6.53,8.49 -10.3,10.24 -3.77,1.75 -6,2.93 -7,6.46 -1,3.53 0.21,5.7 2.49,9.24 2.28,3.54 5,7.83 3.2,14.16 -1.8,6.33 -6.53,8.49 -10.3,10.23 -3.77,1.74 -6,2.94 -7.05,6.47 -1.05,3.53 0.21,5.7 2.49,9.24 2.28,3.54 5,7.84 3.2,14.16 -1.8,6.32 -6.53,8.5 -10.3,10.24 -3.76999,1.74 -5.99999,2.94 -6.99999,6.46 -1,3.52 0.21,5.71 2.49,9.24 2.28,3.53 4.99999,7.84 3.19999,14.17 -1.79999,6.33 -6.52999,8.49 -10.299989,10.23 -3.77,1.74 -6,2.94 -7,6.47 -1,3.53 0.21,5.71 2.49,9.24 2.28,3.53 4.89,7.88 3.05,14.21 z"
     id="path8"
     style="fill:#ffffff;fill-opacity:1" />
  <path
     class="cls-1"
     d="m 581.72836,523.17481 c -13.44,-12.23 -16.92,-33.45 -8.09,-49.34 4.23,-7.63 10.7,-12.87 17.75,-14.38 a 20.21,20.21 0 0 1 3,-0.4 c 1.36,-15.92 11.11,-32 26.12,-41.68 15.01,-9.68 35.4,-13.99999 58.6,-12.2 l -0.46,6 c -21.89,-1.71 -40.86,2.19 -54.88,11.26 -13.51,8.72 -22.29,23.11 -23.43,37.23 a 16.83,16.83 0 0 1 11.79,10.14 c 1.44,3.92 0.71,7.92 -1.85,10.19 -3.36,3 -8.47,1.92 -11.27,-0.75 -2.8,-2.67 -3.63,-6.23 -4.1,-8.76 a 40.63,40.63 0 0 1 -0.63,-5.39 11.36,11.36 0 0 0 -1.64,0.23 c -5.35,1.14 -10.36,5.31 -13.76,11.43 -7.39,13.3 -4.36,31.74 6.89,42 z m 18.62,-57.14 c 0.1,1.12 0.25,2.25 0.46,3.35 0.51,2.76 1.23,4.46 2.34,5.52 0.91,0.87 2.51,1.17 3.16,0.59 0.65,-0.58 0.73,-2.14 0.19,-3.62 a 10.31,10.31 0 0 0 -6.15,-5.84 z"
     id="path10"
     style="fill:#ffffff;fill-opacity:1" />
  <path
     class="cls-1"
     d="m 140.16051,511.10226 a 44,44 0 0 1 -21.06,-5.27 c -10.23,-5.67 -17.14,-15.67 -18.41,-25.69 a 46.37,46.37 0 0 1 -30.000003,-27.12 c -6,-15.61 -2.25,-30.89 2,-41 a 84.17,84.17 0 0 1 29.910003,-36.34 l 3.42,4.93 a 78.3,78.3 0 0 0 -27.830003,33.8 c -3.8,9 -7.26,22.71 -1.94,36.44 a 40.25,40.25 0 0 0 24.400003,23 c 0.07,-0.61 0.17,-1.22 0.29,-1.82 0.91,-4.51 3,-8 6.18,-10 a 12.27,12.27 0 0 1 13.67,0.19 9.71,9.71 0 0 1 3.9,7.48 10.35,10.35 0 0 1 -3.53,8.15 c -3.24,2.79 -8.25,4 -14.17,3.46 1.65,7.51 7.24,15 15,19.29 10.51,5.81 24.38,6.08 34.52,0.66 l 2.83,5.29 a 41,41 0 0 1 -19.18,4.55 z m -33.61,-35.89 h 0.18 c 4.59,0.56 8.42,-0.15 10.52,-1.95 a 4.36,4.36 0 0 0 1.44,-3.39 3.64,3.64 0 0 0 -1.49,-2.88 6.36,6.36 0 0 0 -6.77,0 c -1.8,1.19 -3,3.29 -3.61,6.24 a 16.25,16.25 0 0 0 -0.27,1.98 z"
     id="path12"
     style="fill:#ffffff;fill-opacity:1" />
  <path
     class="cls-1"
     d="m 74.390507,140.98226 a 47.6,47.6 0 0 1 -23.69,-6.15 l 3,-5.2 a 42.7,42.7 0 0 0 43,-0.88 42.9,42.9 0 0 0 19.440003,-34.000005 20,20 0 0 1 -11.6,-1.51 13.37,13.37 0 0 1 -7.000003,-9.2 9.87,9.87 0 0 1 2,-8.59 10.05,10.05 0 0 1 7.180003,-3.37 13.07,13.07 0 0 1 9.43,3.43 c 2.9,2.72 4.75,6.68 5.53,11.79 24.6,-7.53 44.8,-28.22 51.65,-53 l 5.79,1.6 c -7.52,27.19 -29.89,49.78 -57,57.56 v 0 a 49,49 0 0 1 -22.260003,40.450005 48.08,48.08 0 0 1 -25.47,7.07 z M 107.39051,77.982255 h -0.3 a 4.11,4.11 0 0 0 -3,1.3 4,4 0 0 0 -0.7,3.52 7.49,7.49 0 0 0 3.77,5 c 2.62,1.3 5.77,1.3 8.68,0.85 -0.53,-4 -1.79,-7 -3.78,-8.84 a 7,7 0 0 0 -4.67,-1.79 z"
     id="path14"
     style="fill:#ffffff;fill-opacity:1" />
  <path
     class="cls-1"
     d="m 593.54729,367.81923 -0.79,-6 c 18.92,-2.49 36.22,-16.13 43.06,-33.94 6.61,-17.2 3.36,-38 -8,-52.53 a 22.23,22.23 0 0 1 -6.91,4.3 c -5,1.93 -11.52,1.4 -14.44,-3.36 a 8.51,8.51 0 0 1 0,-8.74 11.7,11.7 0 0 1 9.68,-6 c 3.85,0 7.64,1.54 11.35,4.75 3.8,-6.37 5.07,-15.15 4.77,-23 -1.33,-35.06 -21.73,-56.2 -40.16,-60.95 l 1.51,-5.81 c 13.12,3.41 24.37,12.24 32.52,25.54 a 85.66,85.66 0 0 1 12.09,41 c 0.21,5.44 -0.17,13.53 -3.13,21.18 a 32.39,32.39 0 0 1 -3.36,6.48 c 13.24,16.13 17.13,39.82 9.65,59.3 -7.57,19.84 -26.81,35.06 -47.84,37.78 z m 22.8,-100.26 h -0.11 a 5.69,5.69 0 0 0 -4.51,2.93 2.7,2.7 0 0 0 -0.16,2.72 c 1.14,1.86 4.53,1.91 7.14,0.9 a 16.27,16.27 0 0 0 5,-3.13 c -2.54,-2.27 -5.01,-3.42 -7.36,-3.42 z"
     id="path16"
     style="fill:#ffffff;fill-opacity:1" />
  <path
     class="cls-1"
     d="m 362.45804,507.91833 -1.18,-5.88 c 3.61,-0.72 5,-2.82 7.06,-6.47 2.06,-3.65001 4.62,-8.09001 11.08,-9.38 6.46,-1.29 10.55,1.87 13.81,4.40999 3.26,2.54001 5.39,4 9,3.27 3.61,-0.73 5,-2.82 7,-6.46999 2,-3.65001 4.63,-8.09001 11.09,-9.38 6.46,-1.29001 10.61,1.87 13.91,4.38 3.3,2.50999 5.39,4 9,3.27999 3.61,-0.71999 5,-2.82 7,-6.46999 2,-3.65001 4.62,-8.10001 11.08,-9.38 6.46,-1.28001 10.55,1.87 13.84,4.40999 3.29,2.54001 5.39,4 9,3.27 3.61,-0.72999 5,-2.82 7.05,-6.47 2.05,-3.65 4.62,-8.09 11.08,-9.38 6.46,-1.29 10.55,1.88 13.83,4.41 3.28,2.53 5.39,4 9,3.28 l 1.18,5.88 c -6.46,1.29001 -10.55,-1.87 -13.84,-4.41 -3.29,-2.53999 -5.39,-4 -9,-3.27 -3.61,0.73001 -5,2.82 -7,6.47001 -2,3.64999 -4.63,8.08999 -11.09,9.38 -6.46,1.28999 -10.55,-1.88 -13.83,-4.41001 -3.28,-2.52999 -5.39,-4 -9,-3.27999 -3.61,0.71999 -5,2.82 -7.05,6.46999 -2.05,3.65001 -4.63,8.09001 -11.09,9.38 -6.46,1.29 -10.54,-1.87 -13.83,-4.40999 -3.29,-2.54001 -5.39,-4 -9,-3.27001 -3.61,0.73 -5,2.82001 -7,6.47 -2,3.65 -4.63,8.05001 -11.09,9.38 -6.46,1.33001 -10.6,-1.84 -13.88,-4.32999 -3.28,-2.49001 -5.39,-4 -9,-3.28001 -3.61,0.72001 -5,2.82 -7.05,6.47001 -2.05,3.65 -4.62,8.05 -11.08,9.33 z"
     id="path20"
     style="fill:#ffffff;fill-opacity:1" />
  <path
     class="cls-1"
     d="m 325.2831,95.603746 c -1.81,0 -3.56,-0.07 -5.19,-0.19 -13.08,-1 -24.51,-4.92 -33.08,-11.44 l 3.64,-4.77 c 7.63,5.81 18,9.35 29.88,10.22 8.81,0.66 21.07,-0.15 29.35,-7.68 h 0.1 a 17.1,17.1 0 0 1 -4.59,-4.92 11.81,11.81 0 0 1 -1.75,-8.11 8.39,8.39 0 0 1 6.4,-6.79 c 3.51,-0.66 7.3,1.39 9.21,5 2.13,4 1.63,8.48 -0.2,12.41 0.25,0.06 0.5,0.1 0.76,0.15 a 26,26 0 0 0 12.17,-1.39 47.62,47.62 0 0 0 31,-33.000004 l 5.81,1.47 a 53.71,53.71 0 0 1 -35,37.210004 c -5.6,1.79 -10.52,2.29 -15.05,1.54 a 22.51,22.51 0 0 1 -3.26,-0.81 19.3,19.3 0 0 1 -1.62,1.64 c -8.19,7.59 -19.32,9.46 -28.58,9.46 z m 26.07,-27.87 h -0.24 a 2.43,2.43 0 0 0 -1.6,2 5.83,5.83 0 0 0 1,3.93 10.88,10.88 0 0 0 3,3.23 c 1.16,-2.45 1.51,-5.07 0.38,-7.21 a 3.42,3.42 0 0 0 -2.54,-1.95 z"
     id="path30"
     style="fill:#ffffff;fill-opacity:1" />
  <path
     class="cls-1"
     d="m 258.16091,426.75979 a 7.93,8.5720506 0 0 0 -4.24,1.29716 c -3.62,2.4646 -5,7.6208 -3.57,13.7823 a 34.76,37.574335 0 0 0 8.68,16.84143 28.61,30.926402 0 0 1 -14.21,13.14453 29.13,31.488504 0 0 1 -32.16,-9.26386 l -4.64,4.09685 a 35.26,38.114818 0 0 0 38.94,11.23123 34.49,37.282475 0 0 0 16.52,-14.7876 44,47.56245 0 0 0 15.06,8.291 c 11.47,3.55637 24.65,2.76727 39.15,-2.31327 l -1.87,-6.17231 c -13.34,4.68058 -25.33,5.40483 -35.64,2.24841 a 37.86,40.925326 0 0 1 -13.86,-7.88023 33.63,36.352845 0 0 0 2.72,-15.83614 c -0.2,-4.69138 -1.31,-8.24776 -3.38,-10.86369 a 10.26,11.090699 0 0 0 -7.5,-3.81581 z m 3.58,25.45672 a 28.23,30.515635 0 0 1 -5.56,-11.89061 c -0.59,-2.64836 -0.53,-5.76154 0.94,-6.76684 1,-0.70263 2.95,-0.1081 4,1.24311 1.05,1.35121 1.81,3.75095 1.94,6.93979 a 27.22,29.423861 0 0 1 -1.32,10.47455 z"
     id="path34"
     style="fill:#ffffff;fill-opacity:1;stroke-width:1.03969" />
</svg>
